[{"midiNote": 74, "velocity": 100, "timestamp": 1744734214486, "isNoteOn": true}, {"midiNote": 67, "velocity": 100, "timestamp": 1744734217147, "isNoteOn": true}, {"midiNote": 72, "velocity": 100, "timestamp": 1744734218356, "isNoteOn": true}, {"midiNote": 74, "velocity": 100, "timestamp": 1744734219437, "isNoteOn": true}, {"midiNote": 66, "velocity": 100, "timestamp": 1744734258148, "isNoteOn": true}, {"midiNote": 68, "velocity": 100, "timestamp": 1744734258882, "isNoteOn": true}, {"midiNote": 69, "velocity": 100, "timestamp": 1744734259583, "isNoteOn": true}, {"midiNote": 71, "velocity": 100, "timestamp": 1744734260183, "isNoteOn": true}, {"midiNote": 72, "velocity": 100, "timestamp": 1744734260936, "isNoteOn": true}, {"midiNote": 74, "velocity": 100, "timestamp": 1744734261581, "isNoteOn": true}, {"midiNote": 60, "velocity": 100, "timestamp": 1744734263454, "isNoteOn": true}, {"midiNote": 64, "velocity": 100, "timestamp": 1744734263980, "isNoteOn": true}, {"midiNote": 67, "velocity": 100, "timestamp": 1744734264505, "isNoteOn": true}, {"midiNote": 62, "velocity": 100, "timestamp": 1744734265467, "isNoteOn": true}, {"midiNote": 65, "velocity": 100, "timestamp": 1744734266098, "isNoteOn": true}, {"midiNote": 69, "velocity": 100, "timestamp": 1744734267090, "isNoteOn": true}, {"midiNote": 62, "velocity": 100, "timestamp": 1744734269419, "isNoteOn": true}, {"midiNote": 65, "velocity": 100, "timestamp": 1744734270015, "isNoteOn": true}, {"midiNote": 69, "velocity": 100, "timestamp": 1744734270725, "isNoteOn": true}, {"midiNote": 65, "velocity": 100, "timestamp": 1744734338250, "isNoteOn": true}]