{"test-session-1": {"startTime": 1744622928028, "notes": [{"midiNote": 60, "velocity": 100, "timestamp": 1623456789, "isNoteOn": true}], "deviceInfo": "Mobile Piano App", "mode": "practice", "aiSuggestions": ["Try practicing the C Major scale with both hands", "Try practicing the C Major chord and its inversions", "Focus on keeping your wrists relaxed while playing", "Try practicing the C major scale slowly", "Focus on keeping even rhythm between notes"], "lastAnalyzed": 1744622941245}, "demo-session-1": {"startTime": 1744623334462, "notes": [{"midiNote": 60, "velocity": 100, "timestamp": 1623456789, "isNoteOn": true}, {"midiNote": 64, "velocity": 100, "timestamp": 1623456790, "isNoteOn": true}, {"midiNote": 67, "velocity": 100, "timestamp": 1623456791, "isNoteOn": true}], "deviceInfo": "Mobile Piano App", "mode": "practice", "aiSuggestions": ["Try practicing the C Major scale with both hands", "Try practicing the C Major chord and its inversions", "Focus on keeping your wrists relaxed while playing", "Try practicing the C major scale slowly", "Focus on keeping even rhythm between notes"], "lastAnalyzed": 1744623354803}, "interactive-session-1744734132557": {"startTime": 1744734142459, "notes": [{"midiNote": 67, "velocity": 100, "timestamp": 1744734141950, "isNoteOn": true}, {"midiNote": 65, "velocity": 100, "timestamp": 1744734144693, "isNoteOn": true}, {"midiNote": 69, "velocity": 100, "timestamp": 1744734148783, "isNoteOn": true}, {"midiNote": 67, "velocity": 100, "timestamp": 1744734149281, "isNoteOn": true}, {"midiNote": 71, "velocity": 100, "timestamp": 1744734162169, "isNoteOn": true}, {"midiNote": 69, "velocity": 100, "timestamp": 1744734161410, "isNoteOn": true}, {"midiNote": 67, "velocity": 100, "timestamp": 1744734160635, "isNoteOn": true}, {"midiNote": 72, "velocity": 100, "timestamp": 1744734162815, "isNoteOn": true}, {"midiNote": 64, "velocity": 100, "timestamp": 1744734164158, "isNoteOn": true}, {"midiNote": 65, "velocity": 100, "timestamp": 1744734163489, "isNoteOn": true}, {"midiNote": 62, "velocity": 100, "timestamp": 1744734164835, "isNoteOn": true}, {"midiNote": 63, "velocity": 100, "timestamp": 1744734165354, "isNoteOn": true}, {"midiNote": 61, "velocity": 100, "timestamp": 1744734165892, "isNoteOn": true}, {"midiNote": 65, "velocity": 100, "timestamp": 1744734167413, "isNoteOn": true}, {"midiNote": 60, "velocity": 100, "timestamp": 1744734168873, "isNoteOn": true}, {"midiNote": 62, "velocity": 100, "timestamp": 1744734169397, "isNoteOn": true}, {"midiNote": 64, "velocity": 100, "timestamp": 1744734169964, "isNoteOn": true}, {"midiNote": 65, "velocity": 100, "timestamp": 1744734170580, "isNoteOn": true}, {"midiNote": 67, "velocity": 100, "timestamp": 1744734171441, "isNoteOn": true}, {"midiNote": 69, "velocity": 100, "timestamp": 1744734172100, "isNoteOn": true}, {"midiNote": 71, "velocity": 100, "timestamp": 1744734172690, "isNoteOn": true}, {"midiNote": 72, "velocity": 100, "timestamp": 1744734173612, "isNoteOn": true}, {"midiNote": 60, "velocity": 100, "timestamp": 1744734188311, "isNoteOn": true}, {"midiNote": 64, "velocity": 100, "timestamp": 1744734189121, "isNoteOn": true}, {"midiNote": 67, "velocity": 100, "timestamp": 1744734189859, "isNoteOn": true}, {"midiNote": 60, "velocity": 100, "timestamp": 1744734200594, "isNoteOn": true}, {"midiNote": 64, "velocity": 100, "timestamp": 1744734201469, "isNoteOn": true}, {"midiNote": 67, "velocity": 100, "timestamp": 1744734202483, "isNoteOn": true}, {"midiNote": 67, "velocity": 100, "timestamp": 1744734212747, "isNoteOn": true}, {"midiNote": 72, "velocity": 100, "timestamp": 1744734213555, "isNoteOn": true}, {"midiNote": 74, "velocity": 100, "timestamp": 1744734214486, "isNoteOn": true}, {"midiNote": 67, "velocity": 100, "timestamp": 1744734217147, "isNoteOn": true}, {"midiNote": 72, "velocity": 100, "timestamp": 1744734218356, "isNoteOn": true}, {"midiNote": 74, "velocity": 100, "timestamp": 1744734219437, "isNoteOn": true}, {"midiNote": 66, "velocity": 100, "timestamp": 1744734258148, "isNoteOn": true}, {"midiNote": 68, "velocity": 100, "timestamp": 1744734258882, "isNoteOn": true}, {"midiNote": 69, "velocity": 100, "timestamp": 1744734259583, "isNoteOn": true}, {"midiNote": 71, "velocity": 100, "timestamp": 1744734260183, "isNoteOn": true}, {"midiNote": 72, "velocity": 100, "timestamp": 1744734260936, "isNoteOn": true}, {"midiNote": 74, "velocity": 100, "timestamp": 1744734261581, "isNoteOn": true}, {"midiNote": 60, "velocity": 100, "timestamp": 1744734263454, "isNoteOn": true}, {"midiNote": 67, "velocity": 100, "timestamp": 1744734264505, "isNoteOn": true}, {"midiNote": 62, "velocity": 100, "timestamp": 1744734265467, "isNoteOn": true}, {"midiNote": 65, "velocity": 100, "timestamp": 1744734266098, "isNoteOn": true}, {"midiNote": 69, "velocity": 100, "timestamp": 1744734267090, "isNoteOn": true}, {"midiNote": 62, "velocity": 100, "timestamp": 1744734269419, "isNoteOn": true}, {"midiNote": 65, "velocity": 100, "timestamp": 1744734270015, "isNoteOn": true}, {"midiNote": 69, "velocity": 100, "timestamp": 1744734270725, "isNoteOn": true}, {"midiNote": 65, "velocity": 100, "timestamp": 1744734338250, "isNoteOn": true}], "deviceInfo": "Mobile Piano App", "mode": "practice", "aiSuggestions": ["Try practicing the C Major scale with both hands", "Try practicing the C Major chord and its inversions", "Focus on keeping your wrists relaxed while playing", "Work on the chromatic scale to improve finger independence", "Practice arpeggios in various keys"], "lastAnalyzed": 1744734270579}}